<?xml version="1.0" encoding="UTF-8"?>
<!DOCTYPE svg PUBLIC "-//W3C//DTD SVG 1.0//EN" "http://www.w3.org/TR/2001/REC-SVG-20010904/DTD/svg10.dtd">
<!-- Creator: Miya PC01 Server Kamar -->
<svg xmlns="http://www.w3.org/2000/svg" xml:space="preserve" width="287px" height="293px" version="1.0" style="shape-rendering:geometricPrecision; text-rendering:geometricPrecision; image-rendering:optimizeQuality; fill-rule:evenodd; clip-rule:evenodd"
viewBox="0 0 287 293"
 xmlns:xlink="http://www.w3.org/1999/xlink">
 <defs>
  <style type="text/css">
   <![CDATA[
    .fil7 {fill:#1C1824}
    .fil19 {fill:#392428}
    .fil14 {fill:#46354B}
    .fil27 {fill:#492935}
    .fil13 {fill:#4C0522}
    .fil26 {fill:#504F71}
    .fil15 {fill:#5B0932}
    .fil23 {fill:#5E3D3A}
    .fil30 {fill:#625B83}
    .fil5 {fill:#68435B}
    .fil22 {fill:#717190}
    .fil36 {fill:#766A6E}
    .fil2 {fill:#840C43}
    .fil40 {fill:#8C726F}
    .fil39 {fill:#8F2D56}
    .fil38 {fill:#95857A}
    .fil17 {fill:#981357}
    .fil18 {fill:#A70A47}
    .fil37 {fill:#AC7176}
    .fil34 {fill:#AF2D6D}
    .fil33 {fill:#B0738C}
    .fil31 {fill:#B38F8E}
    .fil21 {fill:#B8A798}
    .fil29 {fill:#BB2387}
    .fil1 {fill:#C81559}
    .fil32 {fill:#D32B6D}
    .fil10 {fill:#D62995}
    .fil35 {fill:#D785C5}
    .fil0 {fill:#DC3AA5}
    .fil20 {fill:#E7ADB2}
    .fil16 {fill:#E8CAC5}
    .fil8 {fill:#E92788}
    .fil28 {fill:#EA8FB6}
    .fil24 {fill:#ED6FB1}
    .fil4 {fill:#F554B8}
    .fil12 {fill:#F6E5D9}
    .fil3 {fill:#F845A6}
    .fil6 {fill:#FD63CB}
    .fil9 {fill:#FD72DC}
    .fil11 {fill:#FD83F4}
    .fil25 {fill:#FDF7F5}
   ]]>
  </style>
    <clipPath id="id0">
     <rect width="287" height="293"/>
    </clipPath>
 </defs>
 <g id="Layer_x0020_1">
  <metadata id="CorelCorpID_0Corel-Layer"/>
  <g id="_285186192">
   <g style="clip-path:url(#id0)">
    <image x="0" y="0" width="287" height="293" xlink:href="M.svg_Images\M.svg_ImgID1.png"/>
   </g>
   <g>
    <path class="fil0" d="M85 21c0,3 -2,21 -3,22l-4 22c0,6 -3,12 -1,17l2 -5c2,0 1,6 4,-4 3,-6 6,-26 7,-29 0,-2 0,-1 1,-3 6,-10 2,-8 7,-13l3 -2c2,4 3,9 1,14 0,2 -2,3 -2,6 0,2 0,2 0,4l3 8 -3 1c0,6 0,5 -2,9 -2,6 -2,14 -1,20 0,1 0,2 1,3 0,0 1,0 1,0 0,0 0,0 0,0 0,0 1,0 1,0 0,5 -1,7 2,7l1 0c3,1 0,1 1,1l2 1c0,0 0,0 0,0 4,1 2,-1 5,3 0,0 0,-1 0,-1 1,2 1,-1 1,-1 2,-1 0,0 2,-1 -1,14 1,6 6,10 2,1 1,1 3,3 5,2 5,-6 15,4 2,2 0,1 3,3l-11 24c0,0 -1,1 -1,1 0,0 0,0 0,1 -1,0 -1,0 -1,0 0,2 0,2 -1,4 -1,3 -6,12 -4,23 0,23 -8,28 -7,50l1 15c1,4 0,2 2,4 1,-4 0,-2 1,-2 4,-2 1,-2 7,3 3,2 2,2 4,4 2,2 2,2 4,4l-16 -16c-1,-29 7,-43 8,-50 0,-7 0,-19 3,-27 2,-5 -1,-2 4,-3 0,-2 1,-9 1,-12 0,-1 1,-4 1,-6 2,-5 1,-2 5,-3 -2,-6 2,-12 4,-16 -2,1 -1,3 -2,-1 -4,-4 -2,-3 -7,-5 2,-6 8,-11 6,-14 -1,-3 -1,0 -1,0 -3,0 0,1 -2,0 -1,0 -2,-2 -2,-2l-2 2c-2,2 0,-1 -2,2l-1 1c0,0 0,0 0,1 0,0 -1,1 -1,1 -1,2 0,1 -2,2 -6,-8 3,-9 -3,-16 -1,2 0,0 0,5l-3 1c0,6 2,8 -4,8 -1,-2 -2,-4 -1,-8 2,-4 1,0 4,-4l-1 -9 4 3c1,-5 1,-5 4,-8l-2 -2c-1,3 2,-2 -1,2 0,1 -1,2 -2,3 -2,-9 2,-7 5,-13l-2 -2c-2,-3 -1,1 -1,-2l1 -1c-1,-15 0,-3 0,-13 4,2 -1,2 3,3 1,0 1,3 1,-2 1,-8 -2,1 -2,-9l4 5 -1 -9c2,-1 1,0 4,-1 0,-1 -1,-5 -2,-5 -2,-4 1,0 -2,-1 0,-6 0,-9 -3,-12l1 0c0,0 0,0 0,0l5 -4c0,0 0,0 0,0 0,0 0,0 1,0l4 3c-1,-5 -2,-4 -2,-9 -15,0 -38,5 -51,12l-1 1c-1,0 -1,0 -1,0z"/>
    <path class="fil1" d="M78 65c-3,6 -3,18 -3,26 7,-3 -1,3 8,-9 1,-2 4,-21 8,-32 0,0 0,0 0,0 0,-1 1,-1 1,-1 0,0 0,-1 0,-1 0,0 0,0 0,0l1 -3c1,-3 2,-3 3,-4 4,5 2,8 1,13 -2,12 -1,12 -4,26 -3,10 -5,10 -2,14 0,0 0,0 0,0 6,8 12,8 17,11 4,3 2,1 4,4 4,4 12,6 19,6l0 0c6,2 6,5 5,11 -1,4 -1,3 -3,5l-4 5c-1,2 -1,3 -3,5 -4,4 -6,5 -9,13 -1,3 -1,-2 -1,7l1 14c0,16 2,6 -4,18 -6,9 -4,3 -6,10 0,-5 0,-14 0,-17 -1,-12 1,-7 -1,-15 3,0 4,2 3,0l-1 -29c1,-6 2,0 2,-19l-5 0c1,5 1,6 -1,10 -1,3 0,-1 -1,4 0,2 0,3 0,5 -2,5 1,-2 -1,2 -1,2 -5,23 -4,27l-2 3c-3,3 -2,1 -3,5 -3,14 -4,10 -6,20 0,0 -1,1 -1,1 0,3 2,0 1,6 -3,3 -2,3 -8,4l-1 -2c0,0 0,-1 0,-1l-2 -7c-5,2 3,4 -5,4 -9,-1 1,-2 -5,-4 -1,6 2,6 3,10 1,4 -1,1 2,14 -7,-3 -12,-11 -15,-17 0,-5 -2,-3 -3,-8 -2,-3 0,-2 -3,-4 1,6 12,27 14,30 3,4 3,1 9,7l3 3c5,6 -3,2 8,7 2,0 1,0 2,1 0,0 0,0 0,0l11 9c5,3 14,7 20,4 2,-1 1,0 2,-2 -1,-4 -6,-5 -7,-10l-2 -14c-1,-7 0,-18 3,-26 1,-4 -1,1 0,-1l5 -8c0,-4 0,-2 0,-5 1,-4 0,2 1,-5 1,-5 0,-8 4,-12 -2,-11 3,-20 4,-23 1,-2 1,-2 1,-4 0,0 0,0 1,0 0,-1 0,-1 0,-1 0,0 1,-1 1,-1l11 -24c-3,-2 -1,-1 -3,-3 -10,-10 -10,-2 -15,-4 -2,-2 -1,-2 -3,-3 -5,-4 -7,4 -6,-10 -2,1 0,0 -2,1 0,0 0,3 -1,1 0,0 0,1 0,1 -3,-4 -1,-2 -5,-3 0,0 0,0 0,0l-2 -1c-1,0 2,0 -1,-1l-1 0c-3,0 -2,-2 -2,-7 0,0 -1,0 -1,0 0,0 0,0 0,0 0,0 -1,0 -1,0 -1,-1 -1,-2 -1,-3 -1,-6 -1,-14 1,-20 2,-4 2,-3 2,-9l3 -1 -3 -8c0,-2 0,-2 0,-4 0,-3 2,-4 2,-6 2,-5 1,-10 -1,-14l-3 2c-5,5 -1,3 -7,13 -1,2 -1,1 -1,3 -1,3 -4,23 -7,29 -3,10 -2,4 -4,4l-2 5c-2,-5 1,-11 1,-17z"/>
    <path class="fil2" d="M72 28c0,4 0,5 -1,8l0 3c-4,10 -3,14 -4,20 -1,2 -2,4 -3,6 -2,8 -1,16 -7,21 0,-33 3,-31 4,-51l-4 3c-1,6 -4,22 -2,27l0 59c0,8 -1,13 2,16l1 1c0,5 0,11 0,16 0,11 3,23 0,33 -2,6 0,4 0,10l-5 -1c1,5 3,3 3,8 4,2 3,3 7,5 -1,-16 -3,3 -2,-32 1,-12 -2,-23 -2,-34 4,2 4,6 5,13 0,3 0,2 1,5 1,3 1,7 2,10l4 8 2 -4 2 2c3,0 0,2 1,-1 2,4 -1,0 4,7 4,-1 0,0 3,-2 5,-2 6,-5 7,-11 4,2 2,2 5,-11 2,-6 3,-7 4,-13 1,-10 4,-18 6,-29l0 3 5 0c4,0 8,-1 11,2l5 3c3,1 4,1 7,1 1,-3 2,-4 1,-7l-2 -3c-1,-2 0,0 -1,-4l0 0c-1,1 0,2 -3,4 -3,2 -1,1 -4,0 -12,-2 -13,-10 -18,-12 -10,-2 -3,-1 -12,-6 -10,-6 -7,-9 -10,-8 -8,4 0,16 0,14 0,0 1,0 1,0l-2 32c0,1 -2,0 1,2 1,-1 1,0 1,-3l2 -16c0,-6 0,-12 0,-18l4 -2c2,4 1,6 1,11l4 -6c1,2 0,-1 0,2l0 3c0,0 1,1 1,4l-8 39c-1,1 -1,0 -2,2 -1,1 -1,2 -1,3 -2,-4 -1,-9 -2,-15 -4,2 -2,-1 -3,5 0,4 1,4 -2,15 0,0 0,0 0,-1 -3,-5 -3,-4 -3,-9 0,-12 1,-45 -1,-54 -3,-10 -1,-13 -1,-22 -2,1 -1,0 -2,2 -1,6 2,28 2,39 0,13 -1,30 -3,41 -2,0 -3,-1 -4,-6 -6,-23 -7,-39 -4,-64 1,-7 2,-12 3,-17 2,-10 2,-5 4,-17l8 -32c-2,1 -1,0 -4,1 -2,2 -1,1 -2,2z"/>
    <path class="fil3" d="M7 170c-1,7 5,21 7,26 3,9 7,16 11,23 -1,-7 -3,-10 1,-16 6,0 7,1 9,4 3,6 -2,2 5,6 1,3 0,7 1,10l3 5c4,3 6,4 9,10 4,11 11,13 16,18 2,2 0,1 2,3l5 2c1,0 4,1 4,2 0,0 1,0 1,0 0,0 0,1 0,1 0,0 1,0 1,0l3 3c0,0 0,1 0,1 4,1 5,0 10,2 8,4 3,1 11,2 11,1 15,8 23,-1l5 -3c2,-1 1,0 4,-1 1,-1 1,-3 2,-4 2,-3 0,-1 2,-3l2 -2c0,-3 -1,-2 -4,-4 -2,-2 -2,-2 -5,-3 2,3 3,4 5,6l-1 5c-2,1 -3,2 -5,2l-1 -2c-3,-1 -3,-1 -5,1 -2,1 -1,0 -2,2 0,0 0,4 -3,5 -5,3 -4,2 -6,1 -3,-1 -4,-1 -7,-1l-3 -1c-3,-1 -1,1 1,-3 -14,0 1,-4 -20,-5 -8,0 4,2 -2,0l-7 -3c-3,-2 -3,-3 -4,-6 0,0 0,0 -1,0l-6 -6c0,0 -1,0 -1,0l-6 -7c0,0 0,-1 0,-1l-7 -8 -3 -10c-2,-5 1,-2 -1,-9 -3,-7 1,5 -1,-2 0,0 0,0 0,0l-1 0c-1,0 -1,-1 -1,-3 4,-14 -4,-25 -4,-35l-3 -16c-3,-2 -1,0 -2,-4 -3,-7 -4,-22 -5,-29 -1,-8 -5,-21 -6,-24 -1,-2 0,-2 -1,-6 -3,1 -2,1 -4,5l-1 2c0,0 0,0 0,0l0 2c4,4 3,10 2,17 0,7 3,6 4,19l2 0c0,0 0,0 0,0 0,6 -2,2 0,7 3,9 5,13 4,21 3,-2 1,0 2,-3 1,2 0,4 0,5 0,1 0,0 1,1 0,1 0,1 0,2l1 2c0,0 0,0 0,0 0,1 1,1 2,2 0,0 0,0 0,0l-3 1c1,2 1,2 1,3 2,6 3,2 3,9 -8,0 -2,2 -8,-6l-4 -5c-1,0 -1,0 -1,0 0,0 0,0 0,-1 -3,-2 -1,-1 -3,-8 -1,-1 -2,-1 -3,-1 -8,-4 -1,-6 -6,-8 -1,-6 -1,6 -3,-5 0,0 -1,2 -1,2l-1 2c-3,4 -2,3 -3,13z"/>
    <path class="fil4" d="M143 117c2,-5 -1,-6 3,-13 3,-7 2,-3 3,-7 3,-9 7,-10 8,-13 1,-4 2,-9 1,-13 -3,-1 -2,1 -6,-2l-3 -1c0,-4 1,-4 2,-5l5 -7c3,-6 2,-6 3,-12 0,-1 1,-4 3,-5l2 -1c-2,-7 2,-1 -2,-10 -2,-4 0,-4 -3,-8 -6,-6 0,-4 -6,-9 0,-1 0,-1 0,-1 0,0 0,-2 1,-2l-16 0c0,5 1,4 2,9l-4 -3c-1,0 -1,0 -1,0 0,0 0,0 0,0l-5 4c0,0 0,0 0,0l-1 0c3,3 3,6 3,12 3,1 0,-3 2,1 1,0 2,4 2,5 -3,1 -2,0 -4,1l1 9 -4 -5c0,10 3,1 2,9 0,5 0,2 -1,2 -4,-1 1,-1 -3,-3 0,10 -1,-2 0,13l-1 1c0,3 -1,-1 1,2l2 2c-3,6 -7,4 -5,13 1,-1 2,-2 2,-3 3,-4 0,1 1,-2l2 2c-3,3 -3,3 -4,8l-4 -3 1 9c-3,4 -2,0 -4,4 -1,4 0,6 1,8 6,0 4,-2 4,-8l3 -1c0,-5 -1,-3 0,-5 6,7 -3,8 3,16 2,-1 1,0 2,-2 0,0 1,-1 1,-1 0,-1 0,-1 0,-1l1 -1c2,-3 0,0 2,-2l2 -2c0,0 1,2 2,2 2,1 -1,0 2,0 0,0 0,-3 1,0 2,3 -4,8 -6,14 5,2 3,1 7,5z"/>
    <path class="fil5" d="M235 127c-2,1 -2,1 -3,5 0,0 0,2 0,2l0 2c-1,0 -1,1 -1,1 0,1 -10,18 -12,20 -1,3 -5,8 -6,10 -2,6 2,9 -2,14l-1 3c2,1 2,-1 1,8 -1,16 1,27 -9,26 -8,-1 0,-1 -5,-2 -2,-1 -8,-1 -11,-1l1 -4c2,-2 2,0 3,-4 2,-5 4,-6 6,-9 0,0 0,0 0,-1 1,-1 1,-3 2,-4 -4,3 -7,8 -10,12 -4,6 -6,5 -7,14 5,-1 10,-2 14,0 19,1 27,-2 30,16l3 0 14 0 -4 0c0,-6 -1,1 -1,-5 -1,-8 -2,-5 -2,-8 0,-3 2,-6 -6,-6 0,-7 0,-2 1,-5l0 -6c0,-2 2,-8 2,-11 1,-8 0,-18 1,-22l1 -5c1,-4 -1,-1 1,-4 0,0 3,-3 3,-3 1,-2 2,-3 3,-4 2,-4 1,-8 1,-13 0,-7 0,-7 4,-7 0,3 0,3 1,5l2 -5c1,-6 0,-8 -3,-12 -5,0 -2,0 -4,1 0,0 0,0 0,0 0,0 -1,0 -1,0 0,0 0,0 0,0 0,0 0,1 -1,1 0,0 0,0 0,0 0,0 -2,2 -2,3 -2,1 -1,1 -3,2 1,-5 0,2 0,-4z"/>
    <path class="fil6" d="M143 117c1,4 0,2 2,1 2,-3 3,-2 4,-5l5 -9c3,-6 2,-4 4,-5l2 -2c0,0 0,0 0,-1 1,-3 3,-5 5,-7 1,-3 -1,-1 3,-3l0 -1c0,-7 3,-4 7,-8l1 -2c0,-1 1,-1 1,-1 2,-3 9,-5 12,-9 0,-5 1,-2 1,-6 1,-1 0,-3 -1,-5 0,0 0,0 0,0l-1 0c0,0 -1,1 -2,-1l-1 -2c0,0 0,1 -1,-2 0,-2 -1,-2 -3,-4l-4 -18c4,0 3,4 4,3 0,0 0,1 0,1 1,-18 -1,-4 2,-15 -2,-1 -2,-1 -4,-2l1 -2c-8,-1 -17,-4 -26,-4 -1,0 -1,2 -1,2 0,0 0,0 0,1 6,5 0,3 6,9 3,4 1,4 3,8 4,9 0,3 2,10l-2 1c-2,1 -3,4 -3,5 -1,6 0,6 -3,12l-5 7c-1,1 -2,1 -2,5l3 1c4,3 3,1 6,2 1,4 0,9 -1,13 -1,3 -5,4 -8,13 -1,4 0,0 -3,7 -4,7 -1,8 -3,13z"/>
    <path class="fil7" d="M250 237c3,-2 13,-16 14,-20 2,-4 1,0 1,-3 0,-3 1,-11 1,-15 1,-3 2,-4 2,-6 3,-41 8,-44 6,-98 -2,-3 -3,-5 -4,-7 -1,2 0,0 -1,2 -3,5 -3,22 -4,28l-1 6c-4,14 -2,17 -6,27 -3,7 -5,27 -5,35 0,6 -2,3 -2,7 -1,3 1,4 -1,9 -2,7 -1,3 -1,11 0,13 -3,-1 -2,18 1,7 1,1 3,6z"/>
    <path class="fil8" d="M133 262c-2,-5 -3,-4 -2,-9 -8,0 -15,-3 -12,-11 -2,-2 -1,0 -2,-4l-1 -15c-1,-22 7,-27 7,-50 -4,4 -3,7 -4,12 -1,7 0,1 -1,5 0,3 0,1 0,5l-5 8c-1,2 1,-3 0,1 -3,8 -4,19 -3,26l2 14c1,5 6,6 7,10 -1,2 0,1 -2,2 -6,3 -15,-1 -20,-4l-11 -9c0,0 0,0 0,0 -1,-1 0,-1 -2,-1 -11,-5 -3,-1 -8,-7l-3 -3c-6,-6 -6,-3 -9,-7 -2,-3 -13,-24 -14,-30 -1,-6 -5,-21 -7,-24 0,10 8,21 4,35 0,2 0,3 1,3l1 0c0,0 0,0 0,0 2,7 -2,-5 1,2 2,7 -1,4 1,9l3 10 7 8c0,0 0,1 0,1l6 7c0,0 1,0 1,0l6 6c1,0 1,0 1,0 1,3 1,4 4,6l7 3c6,2 -6,0 2,0 21,1 6,5 20,5 -2,4 -4,2 -1,3l3 1c3,0 4,0 7,1 2,1 1,2 6,-1 3,-1 3,-5 3,-5 1,-2 0,-1 2,-2 2,-2 2,-2 5,-1z"/>
    <path class="fil9" d="M189 65l2 -1c12,-5 2,-3 13,-5 6,-1 10,-5 18,-3 12,4 3,4 11,5 -2,-6 -5,-7 -6,-13l-5 -16c-2,-2 -15,-10 -19,-11 -4,-2 -7,-4 -11,-5 -4,-1 -9,-2 -12,-4l-1 2c2,1 2,1 4,2 -3,11 -1,-3 -2,15 0,0 0,-1 0,-1 -1,1 0,-3 -4,-3l4 18c2,2 3,2 3,4 1,3 1,2 1,2l1 2c1,2 2,1 2,1l1 0c0,0 0,0 0,0 1,2 2,4 1,5 0,4 -1,1 -1,6z"/>
    <path class="fil10" d="M15 98c0,1 1,16 1,19 0,10 1,12 5,15 -2,4 0,7 0,7 0,1 0,-1 1,2l0 6c-8,0 -7,-5 -12,-9 -3,-1 0,-1 -5,-1 0,7 -1,29 2,33 1,-10 0,-9 3,-13l1 -2c0,0 1,-2 1,-2 2,11 2,-1 3,5 5,2 -2,4 6,8 1,0 2,0 3,1 2,7 0,6 3,8 0,1 0,1 0,1 0,0 0,0 1,0l4 5c6,8 0,6 8,6 0,-7 -1,-3 -3,-9 0,-1 0,-1 -1,-3l3 -1c0,0 0,0 0,0 -1,-1 -2,-1 -2,-2 0,0 0,0 0,0l-1 -2c0,-1 0,-1 0,-2 -1,-1 -1,0 -1,-1 0,-1 1,-3 0,-5 -1,3 1,1 -2,3 1,-8 -1,-12 -4,-21 -2,-5 0,-1 0,-7 0,0 0,0 0,0l-2 0c-1,-13 -4,-12 -4,-19 1,-7 2,-13 -2,-17l0 -2c0,0 0,0 0,0l1 -2c2,-4 1,-4 4,-5 1,4 0,4 1,6 1,3 5,16 6,24 1,7 2,22 5,29 1,4 -1,2 2,4 0,-7 -2,-16 -3,-23 -1,-6 -2,-14 -3,-21 -2,-14 -1,-33 -1,-48 -5,5 -7,10 -11,16 -2,3 -3,5 -4,9 -2,3 -4,7 -3,10z"/>
    <path class="fil11" d="M181 281c6,-1 21,-7 26,-9 4,-2 7,-4 10,-7 5,-2 7,-4 11,-7 0,-5 0,-8 0,-13 0,-7 -2,-5 -3,-10 -4,-4 -1,-5 -6,-10l-1 2c-3,2 -2,2 -8,2 1,4 1,1 3,5 0,3 -1,3 1,6 -3,-2 -1,-3 -8,-7 -5,-4 -2,-5 -6,-7 -3,-2 -4,-1 -7,0 5,11 11,9 10,19 -6,0 -4,1 -6,-3 -1,-1 0,-1 -2,-3 -5,-10 7,-1 -4,-10 0,0 -1,-1 -1,-1l-1 -1c-9,10 4,3 1,20 -1,7 -2,2 -2,6 -1,5 0,0 0,4 0,5 -4,4 -3,10 1,12 -2,7 -4,14z"/>
    <path class="fil12" d="M190 143c-4,7 -10,9 -18,11l-6 3c-17,3 -20,-3 -25,-1l-2 0c-5,3 -8,9 -3,14 0,1 0,1 1,2 4,4 9,9 18,7 1,-1 3,-1 4,-4 0,0 0,0 0,0l6 -2c1,0 1,0 1,-1l5 -1 10 11c2,1 4,2 8,2 5,-1 5,-3 7,-3 6,3 3,2 6,6l4 0c3,-1 2,-1 4,-3l1 -3 0 -3c-1,-1 -1,2 -1,-2 -2,4 0,2 -3,4 -4,-1 -8,-1 -10,-5 -2,-3 -1,-7 -2,-12 0,0 -1,0 -1,-1l-1 -5c0,-1 0,-4 0,-5 0,0 1,0 1,-1 0,0 0,0 0,0l-1 -9 -1 0c-1,2 1,2 -2,1z"/>
    <path class="fil2" d="M33 63c0,15 -1,34 1,48 1,7 2,15 3,21 1,7 3,16 3,23l3 16c2,3 6,18 7,24 3,2 1,1 3,4l5 1c0,-6 -2,-4 0,-10 3,-10 0,-22 0,-33 0,-5 0,-11 0,-16l-1 -1c-3,-3 -2,-8 -2,-16l0 -59c-2,2 -3,1 -3,11 0,16 -1,30 0,44 0,7 0,0 -1,5 -1,4 0,8 -1,13 0,3 -2,9 -2,12 0,13 2,4 -1,10 -3,-2 -1,1 -2,-2l-7 -45c-1,-15 0,-36 1,-51 0,-3 1,-3 1,-7 -4,2 -4,4 -7,8z"/>
    <path class="fil13" d="M40 55c0,4 -1,4 -1,7 -1,15 -2,36 -1,51l7 45c1,3 -1,0 2,2 3,-6 1,3 1,-10 0,-3 2,-9 2,-12 1,-5 0,-9 1,-13 1,-5 1,2 1,-5 -1,-14 0,-28 0,-44 0,-10 1,-9 3,-11 -2,-5 1,-21 2,-27 -2,1 -2,2 -4,4 -2,2 -3,2 -5,4 -4,3 -6,5 -8,9z"/>
    <path class="fil14" d="M261 112l-4 7c0,0 0,1 0,1l-2 6c-1,-7 0,-1 -2,-3 -1,1 -1,3 -2,4 -1,2 -1,0 -2,1 1,27 -3,14 -3,21l-2 14c0,5 0,10 -2,19 0,5 -1,2 -1,7 3,9 -4,-6 1,2 2,4 0,-3 1,2 2,5 -3,5 -3,12 0,2 1,3 0,5 0,0 -4,7 1,14 -3,1 0,-4 -4,4l1 1c0,0 0,1 1,1l6 6 3 2c2,0 2,1 2,-1 -2,-5 -2,1 -3,-6 -1,-19 2,-5 2,-18 0,-8 -1,-4 1,-11 2,-5 0,-6 1,-9 0,-4 2,-1 2,-7 0,-8 2,-28 5,-35 4,-10 2,-13 6,-27l1 -6c1,-6 1,-23 4,-28 1,-2 0,0 1,-2 0,-2 1,0 -1,-2 -1,-2 0,-1 -1,-2 -1,4 -2,2 -2,7 -2,11 -1,5 -3,10 -1,2 0,2 -1,4 0,4 -1,2 -1,7z"/>
    <path class="fil4" d="M25 219c1,2 2,4 3,6l8 11c2,2 3,3 5,5 4,6 14,14 21,18 6,6 16,12 24,15 7,3 22,9 30,9 5,-4 8,0 12,-3 1,-1 2,-3 3,-4l3 -5c10,1 7,-4 11,-11l1 -1 -2 -1 -2 2c-2,2 0,0 -2,3 -1,1 -1,3 -2,4 -3,1 -2,0 -4,1l-5 3c-8,9 -12,2 -23,1 -8,-1 -3,2 -11,-2 -5,-2 -6,-1 -10,-2 0,0 0,-1 0,-1l-3 -3c0,0 -1,0 -1,0 0,0 0,-1 0,-1 0,0 -1,0 -1,0 0,-1 -3,-2 -4,-2l-5 -2c-2,-2 0,-1 -2,-3 -5,-5 -12,-7 -16,-18 -3,-6 -5,-7 -9,-10l-3 -5c-1,-3 0,-7 -1,-10 -7,-4 -2,0 -5,-6 -2,-3 -3,-4 -9,-4 -4,6 -2,9 -1,16z"/>
    <path class="fil15" d="M78 25l-8 32c-2,12 -2,7 -4,17 -1,5 -2,10 -3,17 -3,25 -2,41 4,64 1,5 2,6 4,6 2,-11 3,-28 3,-41 0,-11 -3,-33 -2,-39 1,-2 0,-1 2,-2l5 -32c2,-5 -1,-2 3,-4 1,-1 3,-19 3,-22 -2,0 -3,1 -4,2 -6,3 -2,0 -3,2z"/>
    <path class="fil16" d="M134 155c0,7 -3,15 -4,24 1,1 2,2 3,3 6,4 3,3 6,6l2 1c2,3 -1,4 7,7 0,0 2,0 3,1 3,1 1,0 3,2l10 2c13,0 17,2 27,-3 0,-4 0,-6 1,-10 -5,2 -5,6 -15,2 -1,0 -2,-1 -4,-1 -2,-1 -6,-2 -8,-4 -3,-4 -1,-8 0,-9 1,-3 0,0 1,-4 0,1 0,1 -1,1l-6 2c0,0 0,0 0,0 -1,3 -3,3 -4,4 -9,2 -14,-3 -18,-7 -1,-1 -1,-1 -1,-2 -5,-5 -2,-11 3,-14l2 0c5,-2 8,4 25,1l6 -3c-8,1 -11,1 -18,-1 -6,-1 -8,-2 -11,-6 -1,-5 0,-8 1,-13l-3 0c-4,1 -3,-2 -5,3 0,2 -1,5 -1,6 0,3 -1,10 -1,12z"/>
    <path class="fil17" d="M78 65l4 -22c-4,2 -1,-1 -3,4l-5 32c0,9 -2,12 1,22 2,9 1,42 1,54 0,5 0,4 3,9 0,1 0,1 0,1 3,-11 2,-11 2,-15 1,-6 -1,-3 3,-5l0 -4c-3,-2 -1,-1 -1,-2l2 -32c0,0 -1,0 -1,0 0,2 -8,-10 0,-14 3,-1 0,2 10,8 9,5 2,4 12,6 5,2 6,10 18,12 3,1 1,2 4,0 3,-2 2,-3 3,-4 -7,0 -15,-2 -19,-6 -2,-3 0,-1 -4,-4 -5,-3 -11,-3 -17,-11 0,0 0,0 0,0 -3,-4 -1,-4 2,-14 3,-14 2,-14 4,-26 1,-5 3,-8 -1,-13 -1,1 -2,1 -3,4l-1 3c0,0 0,0 0,0 0,0 0,1 0,1 0,0 -1,0 -1,1 0,0 0,0 0,0 -4,11 -7,30 -8,32 -9,12 -1,6 -8,9 0,-8 0,-20 3,-26z"/>
    <path class="fil18" d="M56 207c3,6 8,14 15,17 -3,-13 -1,-10 -2,-14 -1,-4 -4,-4 -3,-10 6,2 -4,3 5,4 8,0 0,-2 5,-4l2 7c0,0 0,1 0,1l1 2c6,-1 5,-1 8,-4 1,-6 -1,-3 -1,-6 0,0 1,-1 1,-1 2,-10 3,-6 6,-20 1,-4 0,-2 3,-5l2 -3c-1,-4 3,-25 4,-27 2,-4 -1,3 1,-2 0,-2 0,-3 0,-5 1,-5 0,-1 1,-4 2,-4 2,-5 1,-10l0 -3c-2,11 -5,19 -6,29 -1,6 -2,7 -4,13 -3,13 -1,13 -5,11 -1,6 -2,9 -7,11 -3,2 1,1 -3,2 -5,-7 -2,-3 -4,-7 -1,3 2,1 -1,1l-2 -2 -2 4 -4 -8c-1,-3 -1,-7 -2,-10 -1,-3 -1,-2 -1,-5 -1,-7 -1,-11 -5,-13 0,11 3,22 2,34 -1,35 1,16 2,32 -4,-2 -3,-3 -7,-5z"/>
    <path class="fil12" d="M182 75c-3,1 -5,3 -7,5 -2,1 -5,4 -7,5l0 1c7,1 13,4 18,4 2,-1 2,-1 5,0 3,1 4,3 7,2 0,-1 1,-1 1,-1 0,0 0,0 0,-1l5 -4c0,0 0,1 0,1 2,4 2,3 4,5l2 -4c0,0 0,1 0,1l3 5c2,2 5,3 6,-2 4,10 7,-19 1,-23 -5,-3 -13,-4 -19,-3 -4,1 -1,1 -4,2 -3,1 -3,0 -6,2 -6,2 -2,3 -9,5z"/>
    <path class="fil11" d="M174 224c2,1 1,0 1,4 0,1 0,5 0,6 -1,9 -5,21 -15,20 -2,1 -1,1 -3,1 -2,1 0,0 -2,1 -2,0 -2,-1 -3,-1l3 2c0,0 0,1 0,1 0,-1 1,0 1,0l-2 1c0,0 -1,1 -1,1l-4 7c-2,3 -1,0 -2,4 -2,8 -1,2 -4,6 -2,4 -1,7 1,9 3,0 8,0 11,0 4,0 5,-1 9,-1 1,-3 3,-4 6,-7 0,-1 0,-1 0,-1l1 -1c1,-2 1,-2 1,-4 2,-5 4,-9 5,-16 1,-8 2,-11 3,-18 2,-5 1,-13 1,-19l-4 0c-1,4 -1,3 -3,5z"/>
    <path class="fil5" d="M242 116c-2,3 -2,3 -4,6 -3,3 -2,2 -3,5 0,6 1,-1 0,4 2,-1 1,-1 3,-2 0,-1 2,-3 2,-3 0,0 0,0 0,0 1,0 1,-1 1,-1 0,0 0,0 0,0 0,0 1,0 1,0 0,0 0,0 0,0 2,-1 -1,-1 4,-1 3,4 4,6 3,12l-2 5c-1,-2 -1,-2 -1,-5 -4,0 -4,0 -4,7 0,5 1,9 -1,13 -1,1 -2,2 -3,4 0,0 -3,3 -3,3 -2,3 0,0 -1,4l-1 5c-1,4 0,14 -1,22 0,3 -2,9 -2,11l0 6c-1,3 -1,-2 -1,5 8,0 6,3 6,6 0,3 1,0 2,8 0,6 1,-1 1,5l4 0 3 1 -6 -6c-1,0 -1,-1 -1,-1l-1 -1c4,-8 1,-3 4,-4 -5,-7 -1,-14 -1,-14 1,-2 0,-3 0,-5 0,-7 5,-7 3,-12 -1,-5 1,2 -1,-2 -5,-8 2,7 -1,-2 0,-5 1,-2 1,-7 2,-9 2,-14 2,-19l2 -14c0,-7 4,6 3,-21 1,-1 1,1 2,-1 1,-1 1,-3 2,-4 2,2 1,-4 2,3l2 -6c0,0 0,-1 0,-1l4 -7 -5 0c5,0 2,-1 3,2 -6,0 -5,1 -10,2l-1 -1c0,-1 0,-2 0,-2 -2,-2 1,-1 -2,-2 -2,3 -1,2 -1,6l-3 -1z"/>
    <path class="fil19" d="M265 214c3,-2 1,0 3,-2 6,-8 14,-42 15,-54 1,-16 0,-35 -5,-49 -1,-5 -3,-9 -4,-14 2,54 -3,57 -6,98 0,2 -1,3 -2,6 0,4 -1,12 -1,15z"/>
    <path class="fil18" d="M110 123c0,19 -1,13 -2,19l1 29c1,2 0,0 -3,0 2,8 0,3 1,15 0,3 0,12 0,17 2,-7 0,-1 6,-10 6,-12 4,-2 4,-18l-1 -14c0,-9 0,-4 1,-7 3,-8 5,-9 9,-13 2,-2 2,-3 3,-5l4 -5c2,-2 2,-1 3,-5 1,-6 1,-9 -5,-11 1,4 0,2 1,4l2 3c1,3 0,4 -1,7 -3,0 -4,0 -7,-1l-5 -3c-3,-3 -7,-2 -11,-2z"/>
    <path class="fil16" d="M152 255c1,0 1,1 3,1 2,-1 0,0 2,-1 2,0 1,0 3,-1 -4,-1 0,0 -2,-2 -9,-1 -6,1 -11,-4 -7,-7 -6,-10 -7,-18 -1,-2 -1,-3 -1,-5 15,2 7,6 11,3 2,-1 9,-1 11,-1 9,0 8,-1 8,-2 -12,1 -9,-1 -14,-2 -10,-4 -3,-1 -9,-6 -3,-3 0,-1 -3,-2 -1,0 -8,-7 -8,-10 -2,1 -2,1 -5,1 0,-5 0,-4 -2,-7 -4,2 -3,2 -4,8 -2,10 -3,9 -2,22 4,-3 6,2 7,4 2,6 -1,1 3,5 2,1 1,0 2,2 2,3 15,14 18,15z"/>
    <path class="fil16" d="M182 75c7,-2 3,-3 9,-5 3,-2 3,-1 6,-2 3,-1 0,-1 4,-2 6,-1 14,0 19,3 6,4 3,33 -1,23 -1,5 -4,4 -6,2l-3 -5c0,0 0,-1 0,-1l-2 4c-2,-2 -2,-1 -4,-5 0,0 0,-1 0,-1l-5 4c0,1 0,1 0,1 0,0 -1,0 -1,1 -3,1 -4,-1 -7,-2 -3,-1 -3,-1 -5,0 -5,0 -11,-3 -18,-4 -4,2 -2,0 -3,3 7,0 8,2 13,2l9 3c10,3 5,4 8,5 3,2 -2,-1 3,1 0,0 0,0 -1,2 0,4 1,4 -1,8l-3 4c-2,2 -2,1 -5,2 3,1 1,0 2,2l10 4c7,-6 -2,-2 11,-15 7,-7 8,-7 14,-15 2,-8 -1,-15 -1,-23l-4 -4c-5,-6 -12,-4 -18,-2 -7,3 -17,6 -20,12z"/>
    <path class="fil12" d="M169 225c0,1 1,2 -8,2 -2,0 -9,0 -11,1 -4,3 4,-1 -11,-3 0,2 0,3 1,5 1,8 0,11 7,18 5,5 2,3 11,4 2,2 -2,1 2,2 10,1 14,-11 15,-20 0,-1 0,-5 0,-6 0,-4 1,-3 -1,-4l-5 1z"/>
    <path class="fil20" d="M135 251c3,1 3,1 5,3 3,2 4,1 4,4l2 1 8 0 2 -1c0,0 -1,-1 -1,0 0,0 0,-1 0,-1l-3 -2c-3,-1 -16,-12 -18,-15 -1,-2 0,-1 -2,-2 -4,-4 -1,1 -3,-5 -1,-2 -3,-7 -7,-4 -1,-13 0,-12 2,-22 1,-6 0,-6 4,-8 1,0 2,-1 2,-2 0,8 0,1 2,4l2 0c1,-6 0,-2 2,-5 8,0 10,2 18,3 -2,-2 0,-1 -3,-2 -1,-1 -3,-1 -3,-1 -8,-3 -5,-4 -7,-7l-2 -1c-3,-3 0,-2 -6,-6 -1,-1 -2,-2 -3,-3 1,-9 4,-17 4,-24 -5,1 -2,-2 -4,3 -3,8 -3,20 -3,27 -1,7 -9,21 -8,50l16 16z"/>
    <path class="fil21" d="M150 129c0,0 0,4 -1,5 -2,4 0,0 -3,4 5,0 13,2 18,1 3,0 4,-2 6,-3l9 0 2 5c1,3 1,1 2,5 -3,4 -12,6 -19,6 -7,-1 -14,-2 -19,-6 0,0 0,0 0,0 -1,-1 -1,-1 -1,-1l-1 2c3,4 5,5 11,6 7,2 10,2 18,1 8,-2 14,-4 18,-11 -2,-4 -6,-1 -8,-4 -2,-6 1,-8 5,-8 5,-1 1,-1 5,-4 1,1 1,2 2,2 2,2 1,1 3,2 9,-14 -19,-11 -34,-13 0,1 0,1 0,1l-3 4c12,9 12,2 18,0 -1,11 0,7 -11,12 -6,-3 -9,-5 -17,-6z"/>
    <path class="fil22" d="M227 48c1,6 4,7 6,13 0,0 2,1 2,4 1,3 0,7 2,19 2,9 0,21 4,27 0,-3 0,-5 0,-7 0,-1 0,-2 0,-3 0,-2 -1,-1 1,-2 -3,-2 -2,-8 -2,-12 0,0 0,-3 0,-3l1 -2c1,-4 1,1 2,-5 4,0 4,-3 3,1l6 -9 3 6c1,-3 0,0 0,-3l1 -3c2,1 3,1 5,3 -1,-5 -17,-23 -21,-27l-9 -7c-1,2 -1,5 -1,7 -1,3 -1,4 -3,3z"/>
    <path class="fil23" d="M219 118c-1,3 -6,6 -9,7 -3,1 -8,-2 -10,-3l-10 -4c-8,-1 -16,-1 -24,-1 -4,0 -7,1 -11,1 -6,1 -5,0 -10,0 -2,4 -6,10 -4,16l3 0c-1,5 -2,8 -1,13l1 -2 2 -7c3,-4 1,0 3,-4 1,-1 1,-5 1,-5 1,-2 0,-1 2,-3 1,1 4,1 5,1l3 2c3,1 3,0 6,-1 -5,-1 -11,-2 -13,-6 3,-3 6,-3 10,-4 15,2 43,-1 34,13 -2,-1 -1,0 -3,-2 -1,0 -1,-1 -2,-2 -4,3 0,3 -5,4l-2 5 4 0c2,-4 -1,-2 1,-7 5,2 4,-2 3,4 0,3 1,-2 -2,4 -1,2 -2,5 1,5l1 0c1,-3 1,-3 3,-5 1,-2 2,-3 3,-4 2,-3 2,-3 6,-3 0,5 -1,9 1,13 3,-5 7,-16 11,-18 3,-3 12,-5 16,-6 6,-1 5,1 6,-2l0 0c-5,-1 -1,0 -5,-2 -1,-1 -3,-1 -4,-2 -3,-2 -4,-4 -8,-4l-3 9z"/>
    <path class="fil24" d="M189 65c-3,4 -10,6 -12,9 0,0 -1,0 -1,1l-1 2c-4,4 -7,1 -7,8 2,-1 5,-4 7,-5 2,-2 4,-4 7,-5 3,-6 13,-9 20,-12 6,-2 13,-4 18,2l4 4c-1,-5 -3,-6 -6,-10 7,0 3,0 8,4 1,2 1,2 2,3 1,5 0,10 0,15 0,6 2,5 3,12 1,4 1,8 2,13 2,5 4,6 6,11l0 0 2 -1 0 -3 0 -2c-4,-6 -2,-18 -4,-27 -2,-12 -1,-16 -2,-19 0,-3 -2,-4 -2,-4 -8,-1 1,-1 -11,-5 -8,-2 -12,2 -18,3 -11,2 -1,0 -13,5l-2 1z"/>
    <path class="fil6" d="M177 282c0,0 1,0 2,0 2,-1 1,0 2,-1 2,-7 5,-2 4,-14 -1,-6 3,-5 3,-10 0,-4 -1,1 0,-4 0,-4 1,1 2,-6 3,-17 -10,-10 -1,-20l1 1c0,0 1,1 1,1 11,9 -1,0 4,10 2,2 1,2 2,3 2,4 0,3 6,3 1,-10 -5,-8 -10,-19 3,-1 4,-2 7,0 4,2 1,3 6,7 7,4 5,5 8,7 -2,-3 -1,-3 -1,-6 -2,-4 -2,-1 -3,-5 6,0 5,0 8,-2l1 -2c5,5 2,6 6,10 -3,-18 -11,-15 -30,-16 -10,0 -8,-4 -10,4 -1,4 0,0 -2,4 -1,4 -2,5 1,9 5,8 2,8 0,20 0,4 0,0 -1,4 -4,10 3,7 -2,15 -1,0 -2,2 -3,3 -1,2 -1,2 -1,4z"/>
    <path class="fil25" d="M193 142l1 9c0,0 0,0 0,0 0,1 -1,1 -1,1 0,1 0,4 0,5l1 5c0,1 1,1 1,1 1,5 0,9 2,12 2,4 6,4 10,5 3,-2 1,0 3,-4 0,4 0,1 1,2l-1 -24c-2,-8 -4,-1 -6,-10 -1,-5 0,-3 -2,-7 -2,-5 0,-4 -3,-4 -1,1 -2,2 -3,4 -2,2 -2,2 -3,5z"/>
    <path class="fil26" d="M242 99c-2,1 -1,0 -1,2 0,1 0,2 0,3 0,2 0,4 0,7l0 2c1,1 1,-2 1,3l3 1c0,-4 -1,-3 1,-6 3,1 0,0 2,2 0,0 0,1 0,2l1 1c5,-1 4,-2 10,-2 -1,-3 2,-2 -3,-2l5 0c0,-5 1,-3 1,-7 1,-2 0,-2 1,-4 2,-5 1,1 3,-10 0,-5 1,-3 2,-7 -1,-4 -2,-5 -4,-8l-1 1c0,0 0,1 0,1l-3 3c4,9 -1,1 0,11 -6,0 -4,0 -6,5 -2,-2 -1,-1 -3,-3l-6 -3c-3,-3 3,-1 -3,-3l0 11z"/>
    <path class="fil27" d="M206 187c-2,3 -4,2 -9,5l1 1c-1,1 -1,3 -2,4 0,1 0,1 0,1 -2,3 -4,4 -6,9 -1,4 -1,2 -3,4l-1 4c3,0 9,0 11,1 5,1 -3,1 5,2 10,1 8,-10 9,-26 1,-9 1,-7 -1,-8 -2,2 -1,2 -4,3z"/>
    <path class="fil16" d="M128 199c2,3 2,2 2,7 3,0 3,0 5,-1 0,3 7,10 8,10 -1,-6 0,0 -3,-5 4,0 6,3 11,5 13,6 9,3 18,3 5,0 9,-1 10,-6 0,0 0,0 0,-1l1 -3c0,-1 0,-1 0,-1 0,0 0,-1 0,-1l-12 -1 -15 -1c-1,1 -1,3 -2,5 -12,-1 -6,-6 -5,-8 -5,1 -1,3 -6,3 -4,0 -3,-2 -6,-3l-2 0c-2,-3 -2,4 -2,-4 0,1 -1,2 -2,2z"/>
    <path class="fil16" d="M146 138l-2 7c0,0 0,0 1,1 0,0 0,0 0,0 5,4 12,5 19,6 7,0 16,-2 19,-6 -1,-4 -1,-2 -2,-5l-2 -5 -9 0c-2,1 -3,3 -6,3 -5,1 -13,-1 -18,-1z"/>
    <path class="fil3" d="M181 219c0,6 1,14 -1,19 -1,7 -2,10 -3,18 -1,7 -3,11 -5,16 0,2 0,2 -1,4l-1 1c0,0 0,0 0,1 -3,3 -5,4 -6,7l10 -2c0,0 1,0 1,0l2 -1c0,-2 0,-2 1,-4 1,-1 2,-3 3,-3 5,-8 -2,-5 2,-15 1,-4 1,0 1,-4 2,-12 5,-12 0,-20 -3,-4 -2,-5 -1,-9 2,-4 1,0 2,-4 2,-8 0,-4 10,-4 -4,-2 -9,-1 -14,0z"/>
    <path class="fil28" d="M164 201c1,1 1,1 3,1 3,2 9,1 13,2l-12 1 12 1c0,0 0,1 0,1 0,0 0,0 0,1l-1 3c0,1 0,1 0,1 -1,5 -5,6 -10,6 -9,0 -5,3 -18,-3 -5,-2 -7,-5 -11,-5 3,5 2,-1 3,5 3,1 0,-1 3,2 6,5 -1,2 9,6 5,1 2,3 14,2l5 -1c2,-2 2,-1 3,-5l4 0c1,-9 3,-8 7,-14 3,-4 6,-9 10,-12l-1 -1c0,-3 1,0 -2,-2 -1,-2 -1,-1 -3,-2 -1,4 -1,6 -1,10 -10,5 -14,3 -27,3z"/>
    <path class="fil1" d="M5 137c5,0 2,0 5,1 5,4 4,9 12,9l0 -6c-1,-3 -1,-1 -1,-2 0,0 -2,-3 0,-7 -4,-3 -5,-5 -5,-15 0,-3 -1,-18 -1,-19 -3,2 -3,5 -4,9 -3,7 -6,22 -6,30z"/>
    <path class="fil29" d="M61 35c-1,20 -4,18 -4,51 6,-5 5,-13 7,-21 1,-2 2,-4 3,-6 1,-6 0,-10 4,-20l0 -3c1,-3 1,-4 1,-8 -2,1 -4,2 -6,3 -2,2 -3,3 -5,4z"/>
    <path class="fil30" d="M242 99l0 -11c6,2 0,0 3,3l6 3c2,2 1,1 3,3 2,-5 0,-5 6,-5 -1,-10 4,-2 0,-11l3 -3c0,0 0,-1 0,-1l1 -1 -2 -3c0,0 0,0 -1,0 0,-1 0,-1 0,-1 -2,-2 -3,-2 -5,-3l-1 3c0,3 1,0 0,3l-3 -6 -6 9c1,-4 1,-1 -3,-1 -1,6 -1,1 -2,5l-1 2c0,0 0,3 0,3 0,4 -1,10 2,12z"/>
    <path class="fil16" d="M149 113c6,-1 -1,-1 6,-2 0,0 0,0 0,1 1,1 1,3 3,3l23 0c0,0 4,-2 0,-8 -4,-6 -17,-7 -21,-8 -2,0 0,1 -2,0 -2,1 -1,-1 -4,5l-5 9z"/>
    <path class="fil31" d="M166 172c-1,4 0,1 -1,4 -1,1 -3,5 0,9 2,2 6,3 8,4 2,0 3,1 4,1 10,4 10,0 15,-2 2,1 2,0 3,2 3,2 2,-1 2,2 5,-3 7,-2 9,-5l-4 0c-3,-4 0,-3 -6,-6 -2,0 -2,2 -7,3 -4,0 -6,-1 -8,-2l-10 -11 -5 1z"/>
    <path class="fil15" d="M84 141l0 4c1,6 0,11 2,15 0,-1 0,-2 1,-3 1,-2 1,-1 2,-2l8 -39c0,-3 -1,-4 -1,-4l0 -3c0,-3 1,0 0,-2l-4 6c0,-5 1,-7 -1,-11l-4 2c0,6 0,12 0,18l-2 16c0,3 0,2 -1,3z"/>
    <path class="fil21" d="M175 100c-6,-2 -8,-3 -15,-4 0,1 0,1 0,1l-2 2c2,1 0,0 2,0 4,1 17,2 21,8 4,6 0,8 0,8l-23 0c-2,0 -2,-2 -3,-3 0,-1 0,-1 0,-1 -7,1 0,1 -6,2 -1,3 -2,2 -4,5 5,0 4,1 10,0 4,0 7,-1 11,-1 8,0 16,0 24,1 -1,-2 1,-1 -2,-2 3,-1 3,0 5,-2l3 -4c2,-4 1,-4 1,-8 1,-2 1,-2 1,-2 -5,-2 0,1 -3,-1 -3,-1 2,-2 -8,-5 1,3 2,4 5,5l0 6c-4,1 -2,0 -4,2 -3,-3 -4,-2 -8,-4l-4 -2c0,0 -1,0 -1,0 0,-1 0,-1 0,-1z"/>
    <path class="fil32" d="M98 171c1,5 0,11 -2,16 0,0 0,0 0,0 -1,4 1,3 -1,8 -1,1 -3,2 -2,3l1 1c0,0 0,0 1,0 0,3 -1,5 0,8 2,7 -1,14 2,18 1,3 -1,2 2,3 1,-5 3,-8 5,-14 0,0 0,0 0,-1l0 -15c0,0 0,0 0,0l-2 -16c-3,-7 1,-3 1,-10 3,4 -1,2 -2,3 0,-3 0,-5 -3,-4z"/>
    <path class="fil33" d="M239 117c-1,3 0,1 -6,2 -4,1 -13,3 -16,6 -4,2 -8,13 -11,18 -2,-4 -1,-8 -1,-13 -4,0 -4,0 -6,3 3,0 1,-1 3,4 2,4 1,2 2,7 2,9 4,2 6,10 2,1 3,1 4,-2 1,-5 0,-1 -2,-5l3 -3 0 -1 -4 2c0,-9 3,-13 10,-19 3,-2 9,-5 12,-3 -3,6 -4,4 -7,9l2 0 -1 5c0,0 1,-1 1,-1l3 1c0,0 0,-1 1,-1l0 -2c0,0 0,-2 0,-2 1,-4 1,-4 3,-5 1,-3 0,-2 3,-5 2,-3 2,-3 4,-6 0,-5 0,-2 -1,-3l0 3 -2 1z"/>
    <path class="fil34" d="M224 69c0,8 3,15 1,23 0,1 0,0 0,2 0,4 0,1 0,3 -2,4 -2,1 -2,7l-1 5c4,0 5,2 8,4 1,1 3,1 4,2 4,2 0,1 5,2 -2,-5 -4,-6 -6,-11 -1,-5 -1,-9 -2,-13 -1,-7 -3,-6 -3,-12 0,-5 1,-10 0,-15 -1,-1 -1,-1 -2,-3 -5,-4 -1,-4 -8,-4 3,4 5,5 6,10z"/>
    <path class="fil9" d="M116 283l28 3c-2,-2 -3,-5 -1,-9 3,-4 2,2 4,-6 1,-4 0,-1 2,-4l4 -7c0,0 1,-1 1,-1l-8 0 -1 1c-4,7 -1,12 -11,11l-3 5c-1,1 -2,3 -3,4 -4,3 -7,-1 -12,3z"/>
    <path class="fil35" d="M223 135c1,0 2,-1 3,-1 -1,4 -5,12 -10,13 -1,-1 -1,3 -1,-3l-3 3c2,4 3,0 2,5 -1,3 -2,3 -4,2l1 24 0 3c4,-5 0,-8 2,-14 1,-2 5,-7 6,-10 2,-2 12,-19 12,-20l-3 -1c0,0 -1,1 -1,1l1 -5 -2 0c-3,1 -2,0 -3,3z"/>
    <path class="fil32" d="M119 242c-3,8 4,11 12,11 -1,5 0,4 2,9l1 2c2,0 3,-1 5,-2l1 -5c-2,-2 -3,-3 -5,-6 -2,-2 -2,-2 -4,-4 -2,-2 -1,-2 -4,-4 -6,-5 -3,-5 -7,-3 -1,0 0,-2 -1,2z"/>
    <path class="fil12" d="M152 188c0,0 0,0 0,0l2 3c5,10 15,11 25,9 -1,-4 2,-1 -2,-4 -3,-2 -2,-1 -5,-1 -9,-2 -7,-9 -13,-11 -5,-2 -3,1 -7,4z"/>
    <path class="fil36" d="M160 96c7,1 9,2 15,4 4,2 7,3 12,1l0 -2c0,0 0,-1 0,-1 -1,-4 -6,-4 -9,-7 -5,0 -6,-2 -13,-2 -2,2 -4,4 -5,7z"/>
    <path class="fil37" d="M134 201c3,1 2,3 6,3 5,0 1,-2 6,-3 -1,2 -7,7 5,8 1,-2 1,-4 2,-5l15 1 12 -1c-4,-1 -10,0 -13,-2 -2,0 -2,0 -3,-1l-10 -2c-8,-1 -10,-3 -18,-3 -2,3 -1,-1 -2,5z"/>
    <path class="fil21" d="M200 122c2,1 7,4 10,3 3,-1 8,-4 9,-7 -4,2 -11,2 -15,0 1,-4 1,-2 4,-5l15 -9c0,-6 0,-3 2,-7 0,-2 0,1 0,-3 0,-2 0,-1 0,-2 -6,8 -7,8 -14,15 -13,13 -4,9 -11,15z"/>
    <path class="fil4" d="M228 258c2,-1 3,-2 5,-3 2,-2 2,-3 4,-5 4,-2 6,-5 9,-8 -3,0 -8,-1 -11,-1 -3,-1 -5,-3 -7,-6l-3 0c1,5 3,3 3,10 0,5 0,8 0,13z"/>
    <path class="fil38" d="M150 129c8,1 11,3 17,6 11,-5 10,-1 11,-12 -6,2 -6,9 -18,0l3 -4c0,0 0,0 0,-1 -4,1 -7,1 -10,4 2,4 8,5 13,6 -3,1 -3,2 -6,1l-3 -2c-1,0 -4,0 -5,-1 -2,2 -1,1 -2,3z"/>
    <path class="fil39" d="M215 143c2,-1 6,-6 8,-8 1,-3 0,-2 3,-3 3,-5 4,-3 7,-9 -3,-2 -9,1 -12,3 -7,6 -10,10 -10,19l4 -2z"/>
    <path class="fil16" d="M219 118l3 -9 1 -5 -15 9c-3,3 -3,1 -4,5 4,2 11,2 15,0z"/>
    <path class="fil34" d="M246 242c1,-1 0,0 1,-2 1,-1 1,-1 1,-2l-3 -2 -3 -1 -14 0c2,3 4,5 7,6 3,0 8,1 11,1z"/>
    <path class="fil40" d="M187 131c-4,0 -7,2 -5,8 2,3 6,0 8,4 3,1 1,1 2,-1 -3,0 -2,-3 -1,-5 3,-6 2,-1 2,-4 1,-6 2,-2 -3,-4 -2,5 1,3 -1,7l-4 0 2 -5z"/>
    <path class="fil40" d="M165 176c-1,9 5,10 13,10 0,-5 0,-2 -4,-5 -3,-3 -3,-2 -4,-6 -5,0 0,0 -5,1z"/>
    <path class="fil31" d="M175 100c0,0 0,0 0,1 0,0 1,0 1,0l4 2c4,2 5,1 8,4 2,-2 0,-1 4,-2l0 -6c-3,-1 -4,-2 -5,-5l-9 -3c3,3 8,3 9,7 0,0 0,1 0,1l0 2c-5,2 -8,1 -12,-1z"/>
    <path class="fil14" d="M227 48c2,1 2,0 3,-3 0,-2 0,-5 1,-7 -2,-1 -2,-2 -4,-3 -2,-2 -2,-2 -5,-3l5 16z"/>
    <path class="fil25" d="M223 135c-2,2 -6,7 -8,8l0 1c0,6 0,2 1,3 5,-1 9,-9 10,-13 -1,0 -2,1 -3,1z"/>
   </g>
  </g>
 </g>
</svg>
